# xmcd
#
# Track frame offsets: 
#        150
#        15495
#        29792
#        48571
#        64728
#        79537
#        94921
#        109368
#        120582
#        133486
#        147198
#        161662
#        173166
#        185902
#
# Disc length: 2699 seconds
#
# Revision: 0
# Processed by: cddbd v1.5.2PL0 Copyright (c) Steve Scherf et al.
# Submitted via: ExactAudioCopy v1.3
#
DISCID=cd0a890e
DTITLE=Mike Markey and Nick Jones - Heads of the Valleys
DYEAR=1900
DGENRE=Blues
TTITLE0=Let me squeeze your lemons
TTITLE1=Fishin' blues
TTITLE2=If it hadn't been for love
TTITLE3=I need me a car
TTITLE4=Can't be satisfied
TTITLE5=Back to California
TTITLE6=My pencil won't write no more
TTITLE7=Filthy rich
TTITLE8=Dust pneumonia blues
TTITLE9=Midnight train to Memphis
TTITLE10=Your red wagon
TTITLE11=My buckets got a hole in it_Move it on over
TTITLE12=This old band
TTITLE13=Too much alcohol
EXTD=
EXTT0=
EXTT1=
EXTT2=
EXTT3=
EXTT4=
EXTT5=
EXTT6=
EXTT7=
EXTT8=
EXTT9=
EXTT10=
EXTT11=
EXTT12=
EXTT13=
PLAYORDER=
